<svg width="99" height="25" viewBox="0 0 99 25" fill="none" xmlns="http://www.w3.org/2000/svg">
<path d="M65.5167 2H70.3809V16.8083C70.3809 17.2155 70.4493 17.5321 70.5862 17.7601C70.7109 17.9704 70.9127 18.1347 71.1568 18.2249C71.434 18.3189 71.7283 18.3647 72.0243 18.3599C72.2539 18.3596 72.4832 18.3422 72.7097 18.3079L73.2351 18.2149L74 21.4931C73.7556 21.5617 73.4131 21.641 72.9724 21.7311C72.4433 21.8372 71.9039 21.8961 71.362 21.907C70.1899 21.9484 69.1623 21.8071 68.2793 21.4831C67.4408 21.1859 66.7263 20.6579 66.2364 19.9735C65.7476 19.2903 65.5078 18.4285 65.5167 17.3882V2ZM73.6799 5.80499V9.11416H63.1219V5.80499H73.6799ZM62.5 10.3349L58.0476 10.5828C57.9735 10.2403 57.8054 9.92021 57.5588 9.65204C57.2925 9.35864 56.9517 9.12812 56.5654 8.98024C56.1095 8.79788 55.6146 8.70943 55.1163 8.72127C54.3629 8.72127 53.7271 8.86625 53.209 9.15622C52.691 9.44618 52.4315 9.82543 52.4307 10.294C52.4292 10.4781 52.4736 10.6603 52.5605 10.8268C52.6475 10.9933 52.7748 11.1399 52.9329 11.2557C53.2677 11.5169 53.8424 11.7272 54.6569 11.8866L57.8337 12.4654C59.5394 12.7819 60.8106 13.2921 61.6471 13.996C62.4837 14.6999 62.9024 15.6222 62.9032 16.7629C62.9221 17.755 62.5631 18.7227 61.8866 19.5032C61.217 20.289 60.2962 20.9025 59.124 21.3437C57.9518 21.7849 56.6078 22.0022 55.0919 21.9956C52.7704 21.9956 50.9209 21.5577 49.5435 20.6819C48.883 20.2713 48.3266 19.7381 47.9112 19.1178C47.4957 18.4974 47.2308 17.8041 47.134 17.0838L51.9175 16.8558C51.9742 17.1522 52.0966 17.4351 52.2771 17.6875C52.4577 17.9399 52.6928 18.1566 52.9683 18.3245C53.5247 18.6558 54.2362 18.8211 55.1029 18.8203C55.9558 18.8203 56.6408 18.6728 57.1581 18.3776C57.6834 18.0733 57.9498 17.6848 57.9571 17.2089C57.9561 17.0167 57.9049 16.8274 57.8076 16.6566C57.7104 16.4858 57.5698 16.3383 57.3975 16.2261C57.0318 15.9634 56.4685 15.7635 55.7077 15.6263L52.6714 15.0729C50.9608 14.763 49.686 14.2251 48.847 13.4592C48.008 12.6934 47.593 11.718 47.602 10.533C47.602 9.51259 47.9066 8.63346 48.5159 7.89563C49.1252 7.1578 49.9891 6.58894 51.1075 6.18903C52.2259 5.79429 53.5345 5.59692 55.0333 5.59692C57.2481 5.59692 58.9912 6.02118 60.2628 6.86968C61.5343 7.71819 62.28 8.87326 62.5 10.3349ZM40.7633 14.9268V5.80499H45.6263V21.6901H40.9576V18.8048H40.7743C40.3908 19.721 39.7003 20.5054 38.7998 21.0482C37.8858 21.6134 36.7707 21.896 35.4544 21.896C34.2814 21.896 33.2502 21.6547 32.3606 21.1722C31.4612 20.6815 30.7361 19.9675 30.2713 19.1147C29.7768 18.2249 29.5255 17.1598 29.5174 15.9195V5.80499H34.3804V15.1337C34.3885 16.0715 34.6667 16.8127 35.2149 17.3572C35.7631 17.9017 36.4962 18.174 37.4142 18.174C37.9865 18.1771 38.5508 18.0528 39.0576 17.8121C39.5739 17.558 40.0014 17.1781 40.2917 16.7153C40.6134 16.2327 40.7706 15.6366 40.7633 14.9268ZM17.9697 21.6901V5.80499H22.6848V8.57186H22.8742C23.1935 7.58685 23.7299 6.84238 24.4834 6.33844C25.2335 5.82949 26.1488 5.5605 27.0859 5.57368C27.3492 5.57446 27.6123 5.58813 27.874 5.61463C28.1241 5.6361 28.3724 5.67308 28.6169 5.72531V9.64208C28.3059 9.56531 27.9889 9.50981 27.6687 9.47607C27.3018 9.4306 26.9321 9.40657 26.5618 9.40413C25.8927 9.39384 25.2321 9.53982 24.6435 9.82801C24.094 10.0981 23.6361 10.4987 23.319 10.9868C22.9916 11.5095 22.8261 12.1025 22.84 12.7033V21.6901H17.9697ZM8.63113 22C6.83502 22 5.28979 21.6554 3.99544 20.9663C2.71973 20.2789 1.68942 19.2734 1.02757 18.0699C0.342525 16.8363 0 15.4163 0 13.8101C0 12.1817 0.34619 10.7544 1.03857 9.52808C1.70494 8.32675 2.73964 7.32496 4.01866 6.6428C5.30567 5.94555 6.83542 5.59692 8.60792 5.59692C10.1385 5.59692 11.4784 5.84889 12.6278 6.35283C13.7331 6.82242 14.6764 7.55589 15.3562 8.47446C16.0258 9.38421 16.3948 10.4541 16.4632 11.684H11.8776C11.7481 10.8909 11.4055 10.253 10.85 9.77046C10.2945 9.28792 9.57399 9.04038 8.68856 9.02783C7.98118 9.01349 7.28781 9.2077 6.71283 9.58121C6.15811 9.95012 5.72436 10.4847 5.41157 11.1849C5.09877 11.8851 4.94278 12.7362 4.9436 13.7381C4.9436 14.7519 5.09592 15.6137 5.40057 16.3235C5.70522 17.0333 6.14264 17.5745 6.71283 17.9471C7.28681 18.323 7.98042 18.5192 8.68856 18.506C9.20743 18.514 9.72067 18.4076 10.1841 18.1961C10.6335 17.9889 11.0151 17.6786 11.2911 17.2963C11.602 16.8624 11.8012 16.3707 11.8739 15.8576H16.4632C16.4132 16.9962 16.034 18.1029 15.3635 19.0671C14.7032 19.9945 13.773 20.7387 12.6755 21.2175C11.5399 21.7392 10.1918 22 8.63113 22Z" fill="#FCFCFD"/>
<path d="M84.6853 0L88.618 0C89.0361 0 89.375 0.343124 89.375 0.766388V4.74811C89.375 5.17137 89.0361 5.5145 88.618 5.5145L84.6853 5.5145C84.2673 5.5145 83.9284 5.17137 83.9284 4.74811V0.766388C83.9284 0.343124 84.2673 0 84.6853 0Z" fill="#FCFCFD"/>
<path d="M89.4832 14.6123H93.4159C93.834 14.6123 94.1729 14.9554 94.1729 15.3787V19.3604C94.1729 19.7837 93.834 20.1268 93.4159 20.1268H89.4832C89.0651 20.1268 88.7262 19.7837 88.7262 19.3604V15.3787C88.7262 14.9554 89.0651 14.6123 89.4832 14.6123Z" fill="#FCFCFD"/>
<path d="M89.4881 4.86426L93.4208 4.86426C93.8388 4.86426 94.1777 5.20738 94.1777 5.63065V9.61237C94.1777 10.0356 93.8388 10.3788 93.4208 10.3788H89.4881C89.07 10.3788 88.7311 10.0356 88.7311 9.61237V5.63065C88.7311 5.20738 89.07 4.86426 89.4881 4.86426Z" fill="#FCFCFD"/>
<path d="M84.6853 19.4854H88.618C89.0361 19.4854 89.375 19.8285 89.375 20.2517V24.2335C89.375 24.6567 89.0361 24.9998 88.618 24.9998H84.6853C84.2673 24.9998 83.9284 24.6567 83.9284 24.2335V20.2517C83.9284 19.8285 84.2673 19.4854 84.6853 19.4854Z" fill="#FCFCFD"/>
<path d="M94.3103 9.74609H98.243C98.6611 9.74609 99 10.0892 99 10.5125V14.4942C99 14.9175 98.6611 15.2606 98.243 15.2606H94.3103C93.8923 15.2606 93.5534 14.9175 93.5534 14.4942V10.5125C93.5534 10.0892 93.8923 9.74609 94.3103 9.74609Z" fill="#FCFCFD"/>
</svg>
