<svg  viewBox="0 0 86 20" fill="none" xmlns="http://www.w3.org/2000/svg"><g clip-path="url(#clip0_1721_2663)"><path fill-rule="evenodd" clip-rule="evenodd" d="M0.0626799 8.10744C0.612413 8.21342 11.4758 8.15287 12.2367 8.1434C16.0601 8.09609 17.7074 3.74711 15.2041 1.21304C13.8897 -0.121174 12.4935 0.0150865 10.2793 0.0150865C8.25732 0.0150865 6.18964 -0.0265486 4.17522 0.0150865C2.36623 0.0510442 1.02709 1.04272 0.425999 2.3864C-0.156071 3.69601 0.0246362 6.44772 0.0702888 8.10744" fill="#273B4A"></path><path fill-rule="evenodd" clip-rule="evenodd" d="M1.75385 11.569C1.7044 13.804 1.42858 15.9955 2.72587 17.2824C3.98703 18.5334 6.14982 18.7529 7.58027 17.2824C8.04685 16.8098 8.36336 16.2111 8.49039 15.5608C8.61742 14.9105 8.54935 14.2374 8.29466 13.6253C8.03998 13.0132 7.60993 12.4892 7.05807 12.1185C6.50622 11.7478 5.85694 11.5468 5.19112 11.5406C4.3123 11.5084 2.5756 11.4611 1.75385 11.5633V11.569ZM0.0685128 9.83354C0.0494909 11.5217 0.0685128 13.2154 0.0685128 14.9036C0.0574224 15.5758 0.183915 16.2433 0.440293 16.8653C0.696671 17.4874 1.07758 18.0511 1.55983 18.522C2.1542 19.1083 2.88432 19.5401 3.6859 19.7796C4.48748 20.0191 5.33595 20.0589 6.15661 19.8954C6.97727 19.7319 7.74495 19.3702 8.39206 18.8421C9.03918 18.3141 9.54588 17.6358 9.86757 16.8671C10.1893 16.0984 10.3161 15.2628 10.2368 14.4338C10.1576 13.6049 9.87471 12.808 9.41313 12.1134C8.95156 11.4188 8.32543 10.8478 7.58986 10.4505C6.85429 10.0533 6.03184 9.84207 5.19492 9.83544C3.50197 9.81083 1.76146 9.83354 0.0685128 9.83922V9.83354Z" fill="#D6AA1B"></path><path d="M83.3026 16.177C83.3026 17.9484 85.9999 17.9484 85.9999 16.177C85.9999 14.4057 83.3026 14.4057 83.3026 16.177ZM79.0854 4.32239V17.3523H81.3528V4.32239H79.0854ZM74.815 4.32239V17.3523H77.0805V4.32239H74.815ZM65.8747 11.6842C66.2133 10.492 67.2233 9.89582 68.4617 9.89582C69.7723 9.89582 70.7101 10.492 70.8584 11.6842H65.8747ZM73.0517 13.5673C73.4074 9.78227 71.4766 7.88976 68.3856 7.88976C65.3877 7.88976 63.4779 9.90339 63.4779 12.6986C63.4779 15.6434 65.3687 17.6021 68.5549 17.6021C69.9606 17.6021 71.5527 17.1176 72.5266 16.1108L71.0696 14.6668C70.5446 15.2081 69.4394 15.5241 68.5967 15.5241C66.9856 15.5241 65.9926 14.7047 65.8442 13.5673H73.0517ZM61.9961 9.11232C60.929 8.17931 59.8428 7.90112 58.3991 7.90112C56.7137 7.90112 54.5015 8.64676 54.5015 10.772C54.5015 12.8538 56.5825 13.4935 58.3249 13.6241C59.6355 13.6979 60.1605 13.959 60.1605 14.593C60.1605 15.263 59.3559 15.7115 58.4923 15.6926C57.4632 15.6736 55.9643 15.1248 55.308 14.4057L54.1838 16.0275C55.5325 17.4261 56.9934 17.6683 58.4561 17.6683C61.0983 17.6683 62.4279 16.2698 62.4279 14.6403C62.4279 12.199 60.2176 11.8016 58.4752 11.6956C57.2939 11.6218 56.7499 11.2849 56.7499 10.6888C56.7499 10.0926 57.351 9.77659 58.4371 9.77659C59.3178 9.77659 60.0673 9.98098 60.7197 10.596L61.9961 9.11232ZM48.3003 10.0434C49.8373 10.0434 50.8112 11.3871 50.8112 12.7667C50.8112 14.1464 49.9686 15.4692 48.3003 15.4692C46.6321 15.4692 45.7894 14.1634 45.7894 12.7667C45.7894 11.3701 46.653 10.0434 48.3022 10.0434H48.3003ZM48.2813 7.97492C45.3405 7.97492 43.5049 10.1381 43.5049 12.7667C43.5049 15.3954 45.3025 17.5567 48.3003 17.5567C51.2982 17.5567 53.1167 15.4125 53.1167 12.7667C53.1167 10.121 51.2259 7.97492 48.2832 7.97492H48.2813ZM41.966 17.3523V12.5226C41.966 9.63465 40.2236 8.01277 38.0494 8.01277C36.8891 8.01277 35.957 8.47833 35.0059 9.39241L34.8556 8.14336H32.8355V17.3523H35.1029V12.6494C35.1029 11.2527 36.054 10.0775 37.4635 10.0775C38.9244 10.0775 39.6929 11.1411 39.6929 12.5378V17.3485L41.966 17.3523ZM25.417 8.16228V7.6778C25.417 5.90641 27.5912 5.36516 29.6151 6.59529L30.4578 4.89203C27.2431 3.01656 23.1343 4.20884 23.1343 7.6778V8.16228H21.4224V10.1002H23.1343V17.3523H25.417V10.1002H27.9849V17.3523H30.2676V8.16228H25.417Z" fill="#273B4A"></path></g><defs><clipPath id="clip0_1721_2663"><rect width="86" height="20" fill="white"></rect></clipPath></defs></svg>